Unique ID : 176230640895807352663285417650166837343 (0x8494C96E79D69366B31E62D171CE305F)
Complete name : Run Baby Run - 2012 - MalayalaM - Blu-Ray - x264 - 1080p - DTS - [8GB] - RockStar - Team QMR.mkv
Format : Matroska
Format version : Version 2
File size : 7.95 GiB
Duration : 2h 20mn
Overall bit rate mode : Variable
Overall bit rate : 8 118 Kbps
Encoded date : UTC 2013-01-09 19:23:20
Writing application : mkvmerge v5.8.0 ('No Sleep / Pillow') built on Sep 2 2012 15:37:04
Writing library : libebml v1.2.3 + libmatroska v1.3.0

Video
ID : 1
Format : AVC
Format/Info : Advanced Video Codec
Format profile : High@L4.1
Format settings, CABAC : Yes
Format settings, ReFrames : 3 frames
Codec ID : V_MPEG4/ISO/AVC
Duration : 2h 20mn
Bit rate mode : Variable
Bit rate : 6 607 Kbps
Maximum bit rate : 40.0 Mbps
Width : 1 920 pixels
Height : 816 pixels
Display aspect ratio : 2.35:1
Frame rate mode : Constant
Frame rate : 23.976 fps
Color space : YUV
Chroma subsampling : 4:2:0
Bit depth : 8 bits
Scan type : Progressive
Bits/(Pixel*Frame) : 0.176
Stream size : 6.31 GiB (79%)
Title : Run Baby Run - 1080p
Writing library : x264 core 120 r2164 da19765
Encoding settings : cabac=1 / ref=4 / deblock=1:-3:1 / analyse=0x3:0x113 / me=umh / subme=8 / psy=1 / psy_rd=1.00:0.00 / mixed_ref=1 / me_range=16 / chroma_me=1 / trellis=1 / 8x8dct=1 / cqm=0 / deadzone=21,11 / fast_pskip=1 / chroma_qp_offset=-2 / threads=12 / sliced_threads=0 / slices=4 / nr=0 / decimate=1 / interlaced=0 / bluray_compat=0 / constrained_intra=0 / bframes=3 / b_pyramid=1 / b_adapt=2 / b_bias=0 / direct=2 / weightb=1 / open_gop=0 / weightp=0 / keyint=23 / keyint_min=1 / scenecut=40 / intra_refresh=0 / rc_lookahead=23 / rc=2pass / mbtree=1 / bitrate=6607 / ratetol=1.0 / qcomp=0.60 / qpmin=10 / qpmax=51 / qpstep=4 / cplxblur=20.0 / qblur=0.5 / vbv_maxrate=40000 / vbv_bufsize=30000 / nal_hrd=vbr / ip_ratio=1.40 / aq=1:1.00
Language : Malayalam
Default : Yes
Forced : No

Audio
ID : 2
Format : DTS
Format/Info : Digital Theater Systems
Codec ID : A_DTS
Duration : 2h 20mn
Bit rate mode : Constant
Bit rate : 1 510 Kbps
Channel(s) : 6 channels
Channel positions : Front: L C R, Side: L R, LFE
Sampling rate : 48.0 KHz
Bit depth : 24 bits
Compression mode : Lossy
Stream size : 1.48 GiB (19%)
Title : DTS 5.1 
Language : Malayalam
Default : Yes
Forced : No

Text
ID : 3
Format : UTF-8
Codec ID : S_TEXT/UTF8
Codec ID/Info : UTF-8 Plain Text
Title : English SubTitles 
Language : English
Default : Yes
Forced : No

 
http://img849.imageshack.us/img849/2648/18428128.jpg 
http://img708.imageshack.us/img708/2087/18488020.jpg 
http://img546.imageshack.us/img546/5804/21387528.jpg